# xmcd
#
# Track frame offsets:
#	150
#	10009
#	22265
#	42661
#	61707
#	79242
#	92331
#	106290
#	135981
#	152723
#	167637
#	188109
#	200314
#	212577
#	223286
#	237338
#	252785
#	266939
#	275219
#
# Disc length: 3882 seconds
# Revision: 1
# Processed by: cddbd v1.5.2PL0 Copyright (c) Steve Scherf et al.
# Submitted via: dBpowerAMP V12.0
#
DISCID=0f0f2813
DTITLE=Various Artist - Rough Guide To Appalachians
DYEAR=2002
DGENRE=Bluegrass
TTITLE0=Claire Lynch - God Spoke His Name
TTITLE1=Laurel Canyon Ramblers - Happy I'll Be
TTITLE2=Rhonda Vincent - My Sweet Love Ain't Around
TTITLE3=Tom Adams - Box Elder Beetles
TTITLE4=Peter Rowan - Wild Geese Cry Again
TTITLE5=Del McCoury - How Long Blues
TTITLE6=Cox Family - Another Lonesome Morning
TTITLE7=Tony Rice Unit - Jerusalem Ridge
TTITLE8=Blue Highway - Still Climbing Mountains
TTITLE9=Larry Sparks - The Old Church Yard
TTITLE10=Ginny Hawker - My Warfare Will Soon Be Over
TTITLE11=Ralph Stanley and The Clinch Mountain Boys - Two Coats
TTITLE12=Rafe Stefanini - I've Got No Honey Baby Now
TTITLE13=Bluegrass Album Band - River of Death
TTITLE14=Jeremy Stephens - Hard Times
TTITLE15=Joe Thompson - Old Corn Liquor
TTITLE16=Norman and Nancy Blake - Hello Stranger
TTITLE17=Dock Boggs - Wise County Jail
TTITLE18=Karl Shifflet and Big Country Show - The Trail of the Ancients
EXTD=
EXTT0=
EXTT1=
EXTT2=
EXTT3=
EXTT4=
EXTT5=
EXTT6=
EXTT7=
EXTT8=
EXTT9=
EXTT10=
EXTT11=
EXTT12=
EXTT13=
EXTT14=
EXTT15=
EXTT16=
EXTT17=
EXTT18=
PLAYORDER=
